<?xml version="1.0" encoding="UTF-8"?><svg id="Layer_1" xmlns="http://www.w3.org/2000/svg" viewBox="0 0 722.62 629.21"><path d="M667.79,47.43c59.18,56.23,66.91,143.69,40.1,217.9-39.55,109.45-141.79,199.35-226.95,274.76-28.8,25.5-59.59,56.97-92.47,76.82-12.22,7.38-25.65,15.3-40.32,11.16-.54-1.66,3.8-.35.96-2.46-9.27-6.9-20.99-12.59-30.88-20.12-41.84-31.84-78.75-71.13-116.56-107.44C123.78,423.26,30.01,345.97,5.63,235.09-32.49,61.73,130.03-59.47,282.66,38.06c29.96,19.14,52.52,46.65,71.98,76,30.04-42.8,65.72-77.6,114.14-98.84,64.62-28.34,147.39-16.83,199.01,32.21ZM653.58,68.63c-45.53-45.54-121.57-54.31-179.42-28.03-32.63,14.82-75.81,51.99-97.43,80.57-6.84,9.04-13.49,28.9-27.16,22.99-5.86-2.53-21.36-26.41-26.91-33.09C255,29.57,143.27-10.48,63.63,81.07c-40.07,46.05-48.67,107.43-31,165.02,27.47,89.51,88.76,141.51,153.04,203.96,36.94,35.9,73.84,74.67,112.46,108.54,13.78,12.08,46.82,42.01,64.62,42.38,4.35.09,7.75-2.47,11.31-4.48,24.47-13.8,54.29-41.92,76.1-60.9,89.88-78.2,230.5-199.96,245.86-324.14,6.12-49.51-6.44-106.82-42.43-142.82Z"/><path d="M100.94,177.3c4.81-.93,17.72-.12,23.04.44,2.66.28,4.92.33,5.7,3.28v86.1c-1.31,4.23-6.19,4.66-10.01,4.99-13.82,1.17-38.21.74-51.95-1.12-4.28-.58-7.73-2.44-9.63-6.37-4.05-8.35-7.94-43.55-6.95-53.04.6-5.74,1.81-7.03,7.45-7.55,16.11-1.48,32.19,1.83,48.1,2.09,6.92.11,5.93-5.94,5-11.11-2.4-3.46-16.64,4.12-16.64-9.44,0-4.82,1.1-7.36,5.88-8.28ZM113.14,256.08c2.34-5.97.41-11.77.01-17.51-.43-6.18,2.54-14.1-5.57-15.43-5.4-.88-26.16-.84-31.75.18-3.79.69-4.37,5.95-4.69,9.27-.34,3.67-.2,23.49,4.49,23.49h37.5Z"/><path d="M142.14,55.58c1.39-6.47,16-5.7,16-1v17c0,.17,1.54,1.76,2.02,1.98,2.43,1.14,22.25.97,24.41-.56,4.07-2.87-1.67-20.45,6.11-21.92,6.45-1.22,9.95,2.41,10.51,8.44s-.28,19.86-1.11,25.98c-.59,4.32-2.24,6.11-6.42,6.57-6.26.68-32.21-1.38-35.11.9-3.18,2.5-.43,22.26-1.43,27.57-.37,1.98-1.91,3.47-3.69,4.31l-61.66,1.34c-1.61,1.16-3.2,2.24-3.61,4.39-1.59,8.41,2.21,28.79-.76,35.23-2.06,4.48-13.7,3.17-15.03-.49-2.25-6.21-1.71-30.11-1.27-37.81.16-2.92.93-12.17,1.8-14.2,1.58-3.71,7.11-4.88,10.76-5.24,16.92-1.69,35.64,2.54,52.04,1.04,2.59-.24,4.65-.37,6.45-2.55v-51Z"/><path d="M486.83,50.27c19.52,1.01,41.63-2.01,60.84-.23,15.01,1.39,8.62,16.89,8.42,27.5-.21,11.13,1.33,25.52.06,36.06-.84,7.04-4.96,8.95-11.48,9.52-12.75,1.12-41.62,1.42-54.06-.02-6.86-.79-7.06-5.56-7.51-11.49-1.08-14.19-1.28-40.04-.01-54.08.27-3.03.67-5.78,3.74-7.26ZM540.14,69.08h-38.5c-.26,0-2.35,1.02-2.52,1.69.63,6.14-1.54,29.44.95,32.88.33.45,3.33,2.43,3.57,2.43h35l1.5-1.5v-35.5Z"/><path d="M249.64,417.08c3.6,1.01,2.96,11.85,1.74,14.74-2.48,5.86-17.18,4.04-22.78,4.22-7.07.23-15.3,4.25-18.79-5.12l.83-56.84c1.83-2.5,4.12-2.79,6.95-3.05,17.86-1.62,37.9,2.75,56.07,1.03,11.16,1.27,6.98,18.15,7.44,26.56.2,3.69,1.56,7.4,1.18,11.32l17.46,2.05c3.48,2.66,2.32,13.34,2.27,17.45-.94,2.86-12.15,1.45-15.4,1.6-6.73.31-12.71,1.54-19.84.1-2.29-.59-1.76-23.06-1.66-26.6.15-4.98,3.13-12.03-.46-16.46h-27c-.54,0-2.95,1.89-3.4,2.6-2.06,3.28-2.42,21.7-1.1,26.4h16.5Z"/><path d="M669.64,157.08c2.83.87,2.32,14.34-2.11,16.89-2.84,1.64-24.9,1.74-28.44.66-4.09-1.24-5.28-5.4-5.84-9.16-2.04-13.84.58-29.03-1.07-41.93-.18-1.4-.23-2.59-1.45-3.55-4.01-3.16-53.18.47-57.68-3.32-2.07-1.74-2.69-9.86-2.9-13.1-.51-7.63-.88-21.67-.03-29.01,1.17-10.09,15.75-7.1,16.86-3.81,1.74,5.16-2.57,26.41,2.83,28.17,1.27.42,8.76,1.08,10.8,1.2,13.49.83,28.86-1.4,42.04-.04,11.41,1.18,7.52,10.96,7.46,18.46-.04,5.88-.83,33.96.97,36.86.32.52,2.18,1.68,2.57,1.68h16Z"/><path d="M596.37,257.84c-1.13-1.56-1.12-3.39-1.28-5.22-1.09-12.99-1.2-38.18,0-51.08,1.59-17.02,21.89-10.58,33.5-10.42,6.47.09,34.55-1.53,37.64,2.36.81,1.01.79,1.88.94,3.06,1.47,10.96.58,42.66-1.28,53.81-1.08,6.49-4.04,8.21-10.22,8.78-13.72,1.26-40.28,1.16-54.08,0-1.83-.15-3.66-.15-5.22-1.28ZM610.14,209.58c-1.78,8.28,1.32,22.52,0,31.5l39.04.54c2.79-1.84,2.87-32.16.73-34.3-.93-.93-5.68-2.08-7.26-2.24-4.54-.45-27.22-.57-29.9,1.11-.78.49-2.43,2.61-2.6,3.4Z"/><path d="M273.37,261.84c4.69,3.27,24.37-1.03,26.84,2.91,3.97,6.33.29,12.08-.07,17.84-.26,4.16-.87,26.05,1.65,27.58,2.18,1.32,8.88.93,10.34,3.66,1.03,4.49,2.96,16.53-2.02,18.73-4.15,1.83-32.43.36-39.52.48-5.82.1-12.71,2.98-18.55-.6-1.3-4.77-2.38-13.61,2.11-16.84,2.13-1.53,9.47-2.22,12.58-2.43,1.72-.12,3.37,1.01,4.9.91,10.96-.72,13.34-2.82,12.57-14.55-.82-12.45-23.29,1.09-26.86-10.17l.28-43.29c1.52-3.13,9.46-2.16,12.54-1.53,3.69,3.78.36,14.46,3.2,17.3Z"/><path d="M396.88,372.83c-.96,1.02-4.67,2.11-6.22,2.28-10.2,1.13-29.48.66-40.06.01-10.82-.66-16.46-.2-17.49-12.51-1.12-13.3-1.03-36.71,0-50.07.16-2.14.48-4.24,1.28-6.22,1.53-1.13,3.4-1.16,5.22-1.29,13.05-.95,35.11-1.07,48.08,0,8.5.7,9.8,2.03,10.5,10.5,1.12,13.59,1.17,38.52,0,52.08-.14,1.65-.13,3.95-1.3,5.2ZM350.14,320.08c-1.89,0-1.36,36-.1,37.6.65.82,1.6,1.24,2.63,1.37,10.18-1.64,22.82,4.52,31.47-1.47v-35c0-.18-2.32-2.5-2.5-2.5h-31.5Z"/><path d="M539.14,270.58c.6-4.07,2.87-4.28,6.46-4.54,7.79-.58,23.56-.87,31.06.02,14.39,1.71,6.34,29.02,7.47,39.03,8.39-.3,17.02-.58,17.8,9.78.48,6.35-3.28,9.21-9.29,9.21h-21c-4.23,0-1.51-10.89-1.45-13.45.08-3.9.56-27.03-.98-28.11-2.91-.36-13.97-1.72-14.92,1.2.36,6.87-.98,15.22-.17,21.89.36,2.94,2.01,4.71,2.13,7.96.24,6.67-.59,10.94-7.55,11.56-7.87.7-27.59,1.01-35.09,0-1.1-.15-2.18-.11-3.04-.96-2.94-2.25-3.57-13.74-.42-15.6,2.55-1.51,29.01.61,29.01-1.49,1.18-11.25-1.59-25.65,0-36.5Z"/><path d="M360.14,525.58c3.95,4.37,10.06,1.49,15.06,2.94,1.78,4.63,2.42,10.83-3.52,11.61-4.98.66-21.11.65-26.09,0-1.4-.18-2.59-.23-3.55-1.45l-1.41-38.61c2.12-4.26,16.47-2.11,20.62-3.57,2.53-3.56-.08-32.81.84-39.96s12.64-5.14,14.13-2.79c3.01,4.76-.91,21.88,1.92,28.33h17.5c9.3,0,8.5,16.98,7.44,23.44-1.3,7.93-13.94,7.5-16.82,1.93-1.37-2.65-.44-6.15-3.12-7.37.04,3.55-.19,7.9-3.72,9.78-3.73,1.99-14.49.37-19.29,1.22v14.5Z"/><path d="M454.36,475.87l13.34,2.15c1.05,1.51.7,10.52-.81,11.82-1.89,1.63-23.34,1.89-25.75.74s-2.84-4.64-3.05-6.95c-.64-7.07,1.72-44.52-1.88-47.12l-57.66-1.34c-2.4-1.9-1.28-10.18-1.41-13.59-.08-1.97-1.08-3.92-1.08-6.02,0-7.63,6.36-11.8,13.04-7.93,4.48,2.59,1.76,9.33,4.69,10.3s11.84-.13,15.9.1c10.99.61,24.89-.18,34.98,1.02,5.64.67,7.9,2.97,8.47,8.53.71,6.83-1.45,46.38,1.22,48.29Z"/><path d="M185.88,241.32c8.43-1.49,33.63-1.04,42.8-.28,4.34.36,7.63.74,8.39,5.61.43,2.72.83,9.72-1.51,11.36-4.11,2.89-27.76-.03-34.87,1.13s-6.07,8.68-5.54,14.42c1.37,14.93,8.07,13.31,21.02,12.06,2.04-1.35.96-8.97,5.67-10.33,2.51-.72,10.47-.6,12.31,1.26,1.4,1.41,1.38,17.09,1.03,20.08-.42,3.61-2.14,4.07-5.54,4.46-8.73,1-34.4.72-42.55-1.48-9.89-2.67-6.44-11.37-6.92-19.08-.51-8.09-1.56-15.58-1.03-23.95.13-2.03,1.07-11.69,1.48-12.52.73-1.47,3.67-2.47,5.25-2.75Z"/><path d="M236.64,448.08h48c4.49,0,6.99,9.07,7.38,12.62.51,4.68.77,30.27-.95,32.8-3.34,4.88-14.63,1.62-19.38,1.54-10.47-.18-33.31,3.83-36.33-9.67-.67-2.99-1.13-13-1.25-16.75-.1-2.92-.85-20.54,2.54-20.54ZM253.64,481.08h23.5c1.91-5.1.71-9.82-.04-14.95-4.78.37-21.87-3.09-24.72.2-1.82,2.11-2.02,13.77,1.26,14.75Z"/><path d="M186.9,315.32c3.11,6.08,2.1,13.17,3.24,19.75l23.35.92c6.83,23.9-5.72,16.14-19.91,18.04-12.25,1.64,2.53,25.98-13.91,23.04-7.87-1.41-4.57-13.66-4.5-18.45.06-4.22.73-24.55-1.29-26.3l-45.05-1.44c-4.19-1.06-3.24-13.62-1.44-15.54.96-1.02,4.67-2.11,6.22-2.28,9.84-1.09,27.82-.58,38.06-.01,2.5.14,14.22,1.27,15.22,2.28Z"/><path d="M419.87,310.31c5.53-1.12,22.88-.38,28.56.99,6.24,1.5,7.2,12.23,3.27,16.85s-8.86,2.32-13.82,3.18c-9.74,1.68-4.61,13.8-5.6,21.12l1.5,1.5c3.37-.4,6.63.9,9.87,1.13,5.76.4,19.68-1.21,23.83.17s5.25,14.68-4.81,15.86-32.26.92-42.07.03c-2.6-.24-4.62-.43-6.53-2.47l-.91-53.05c.33-2.57,4.41-4.83,6.71-5.29Z"/><path d="M223.9,172.32c4.02,4.03-2.17,27.56,3.71,32.79,3.02,2.69,17.68,2.62,21.96,1.92,6.16-1.01,6.14-5.55,5.42-10.8l-8.64-1.8c-2.9-1.21-2.71-11.03-2.2-13.81,1.29-6.95,20.53-7.35,24-3.06,2.86,3.54,2.4,24.51,2.01,30.07-.22,3.2-.83,10.17-2.96,12.04-5.19,4.56-29.28,1.72-36.54,1.37-4.26-.2-18.59,1.24-20.64-1.36-1.87-2.37-.7-16.85-.86-21.14-.22-6.12-4.27-25.76,4.48-27.43,2.15-.41,8.75-.28,10.24,1.21Z"/><path d="M584.64,173.08c4.11,1.14,6.79,16.72-1.07,17.93-8.72,1.35-42.97,1.23-51.88-.03-7.32-1.03-7.14-13.91-1.54-16.39,2.85-1.27,15.2-.54,16.55-2.45,1.83-5.7-1.66-33.77,2.1-36.15,4.36-2.76,32.22-.32,39.12-.26,4.46,3.1,1.51,15.34-3.29,15.34h-20.5c-1.66,2.4-1.18,22,0,22,5.47.97,15.74-1.32,20.5,0Z"/><path d="M508.14,226.58c1.05,3.5,19.74,3.22,22.33,1.58,3.92-2.48-1.7-14.58,6.19-16.05,4.39-.82,12.44-1.11,14.02,3.92.85,2.71-.27,13.97-1.66,16.44-1.9,3.38-7.02,3.67-9.45,6.55-2.21,2.61-1.77,6.87-4.47,8.53-3.93,2.42-34.78,2.38-38.91-.01-2.85-1.65-3.75-7.82-4.04-10.96-1.11-12.33.62-26.29.17-38.79,1.66-5.48,15.81-2.85,15.81-.19v29Z"/><path d="M369.14,281.58c-.97,3.2-12.76,3.2-15.33,1.58l-1.23-1.99c.21-14.55-1.77-31.3-.49-45.63.18-2.04.13-3.74,1.58-5.42,3.74-4.35,24.58-.82,30.83-2.17l1.5-1.5c-1.25-14.82,2.1-14.15,15.5-13.22l1.64,2.36c-.75,5.14.89,10.06,1.05,14.96.08,2.68.85,15.55-2.55,15.55h-31l-1.5,1.5v34Z"/><path d="M200.14,142.58c-1.79,3.57-14.5,3.16-15.04.83,1.79-7.69-3.87-31.28.45-36.42.84-1,1.8-1.64,3.11-1.89,3.6-.67,33.73-.51,36.53.42,4.48,1.49,3.66,8.55,4.08,12.42,6,2.25,11.9-.77,12.88,7.62.5,4.26.94,17.16-2.62,19.42-4.1,2.6-24.4,2.91-24.4-5.4v-18.5c-4.45-.97-11.22-2.47-15,.5v21Z"/><path d="M274.39,144.34c-3.94,4.75.5,13.12-7.72,12.81-3.63-.14-5.9-2.06-6.47-5.64-1.06-6.69-1.09-37.25,0-43.88,1.27-7.79,17.6-8.95,20.2-3.32,3.94,8.53-8.58,17.34-.27,25.28l35.52,1.48,2.35,1.64c2.24,13.4-6.93,11.39-16.43,13.33,1.48,8.82,1.76,17.31-9.91,15-7.5-1.48-2.61-13.59-5.49-16.5-2-2.03-9.73-2.13-11.77-.21Z"/><path d="M314.14,473.58c.96,3.1,15.67.59,19.31,1.69,5.72,1.73,3.4,16.97-.29,20.32-10.09-.34-21.42,3.8-30.48-1.54-1.15-1.31-1.35-2.8-1.55-4.45-1.17-9.96-1.92-30.23-1.03-40.07.26-2.82.49-5.21,3.11-6.89,3.65-2.35,22.24-1.94,27.48-1.6,1.91.13,9.35.97,10.48,1.52,4.34,2.12,3.49,16.52-1.52,16.52h-25.5v14.5Z"/><path d="M317.14,390.08c5.17.25,22.57-.45,25.97,2.53s3.18,15.41,3.08,20.02c-.07,3.37-1.02,15.83-2.46,17.54-2.14,2.55-12.84,2.63-15.89,1.72-6.64-1.99-2.22-20.32-4.13-25.87-7.17-2.96-21.32,2.57-22.59-8.41-.42-3.61-.41-22.72.94-24.86,1.52-2.41,10.39-1.99,13.08-1.16.45.27,2,2.72,2,3v15.5Z"/><path d="M453.14,199.58c.71-4.18,4.74-5.9,8.59-6.41,3.36-.45,19.97-.83,21.49,1.58,3.67,13.04-1.18,15.5-13.44,14.47l-1.2.8v17.13c1.63,2.26,13.03.08,14.36,4.63,1.04,3.55.89,13.54-2.3,16.3h-27.5v-48.5Z"/><path d="M436.28,175.22c-3.9,8.89,4.64,27.46-9.75,27.77s-8.57-19.31-8.31-27.41c.22-6.85-4.69-16.59,6.37-17.54,8.93-.76,30.57-1.12,39.09-.01,8.27,1.08,6.46,14.45,1.75,15.86-5.24,1.57-25.92-1.29-29.16,1.33Z"/><path d="M477.85,405.29c4.72-1.04,26.46-.87,31.8-.23,2.16.26,4.14.66,5.38,2.62,1.07,1.7,1.98,11.13,2.15,13.85.42,6.88.89,31.64-1.26,36.82-1.62,3.9-10.65,4.3-12.33-1.23-2.17-7.16,2.3-30.46-2.88-34.12-3.5-2.48-16.85.03-22.05-.95-6.8-1.28-8.36-15.09-.81-16.76Z"/><path d="M451.97,254.26l2.57,11.92c3.27,2.64,13.94-1.32,15.93,3.14,2.26,5.07,3.71,24.59-3.04,26.55-2.91.85-25.78.56-27.72-.86-5.72-12.21-.8-27.51-1.43-40.79,4.27-1.7,9.45-1.79,13.69.04Z"/><path d="M147.14,246.58c.99-3.53,12.48-3.37,14.08-.83,3.2,5.08-1.07,25.31,1.08,31.67,1.2,3.54,10.35,2.09,11.64,6.35,1.52,5.02.36,10.32-5.36,11.25-6.01.98-30.06.52-35.73-1.15-.72-.21-1.34-.6-1.81-1.19-4.81-15.91,4.98-11.73,16.1-13.6v-32.5Z"/><path d="M382.86,147.31c18.62-4.15,7.97,17.86,12.02,26.54,2.24,4.8,10.51-.37,12.06,4.94,1.17,3.99.33,17.66-4.49,19.1-1.99.59-16.43.61-18.78.17-1.98-.37-3.47-1.91-4.31-3.69l-.21-43.79c.16-1.99,1.97-2.88,3.72-3.27Z"/><path d="M494.9,264.34c4.88-.76,18.09-.78,22.47,1,7.88,3.2,5.96,21.15,2.78,27.25-10.43-.37-22.55,3.36-32.11-.91-1.26-1.54-1.42-20.33-.68-22.89.85-2.95,4.86-4.03,7.55-4.45Z"/><path d="M354.64,181.65c1.63.03,5.3.24,6.51.93,3.61,2.06,2.46,27.61-1.02,30.99-2.71,2.63-15.09,1.36-19.53,1.47-5.87.14-11.93,2.51-18.03-.89-.46-2.9-1.36-10.67.54-12.59,4.33-4.37,20.64,2.41,22-5,1.61-8.77-3.85-15.11,9.53-14.9Z"/><path d="M499.88,349.32c5.05-.9,25.04-.7,29.57.96,4.15,1.52,3.81,14.16-1,15.61-2.58.78-16.53.03-17.35.64-2.92,4.18,2.11,14.28-4.49,15.53-3.68.69-12.56,1.2-13.44-3.5-.66-3.52-.55-19.2.03-22.91s3.04-5.67,6.68-6.32Z"/><path d="M315.88,228.33c2.36,2.45,1.39,13.11.01,16.5-1.36,1.58-12.2,1.87-13.8.79-3.17-4.05.13-9.26-2.46-13.54-2-2.36-9.43-.85-10.37-3.63-.81-2.38-.09-10.53-.14-13.86-.05-3.56-2.4-7.26.95-11.06,2.51-2.84,14.12-2.53,16.66-.56,4.27,3.32,1.06,17.11,2.56,21.44.83,2.41,5.28,2.56,6.58,3.91Z"/><path d="M318.85,265.29c3.69-.85,19.96-1.05,21.8,2.77,2.1,4.35,2.64,23.27-1.52,26.51-2.77,2.16-17.65,2.21-20.76.77-5.62-2.6-5.03-19.25-4.17-24.7.44-2.78,1.83-4.7,4.65-5.35Z"/><path d="M389.14,554.08c-.09,6.89,1.56,11.42-4.67,15.84-7.07,5.01-30.76,7.01-37.29,1.62-3.35-2.77-4.68-12.35-1.81-15.22,3.16-3.16,36.73.25,43.77-2.24Z"/><path d="M259.9,93.84c-1.11,1.11-3.67,1.15-5.22,1.28-6.8.57-28.72.94-34.61-.48-7.04-1.69-6.96-9.93-4.45-15.57l2-1c7.59,1.13,37.57-2.26,42.02,2.01,2.1,2.02,2.19,11.84.26,13.77Z"/><path d="M98.85,143.29c3.67-.84,21.71-.8,25.83-.26,3.27.43,4.06,1.19,4.5,4.5.55,4.22,1.22,16.72-3,18.1-3.86,1.26-25.55.97-28.62-1.48-2.85-4.99-6.6-19.04,1.28-20.86Z"/><path d="M314.85,160.29c3.85-.89,24.48-.73,27.23,1.34,3.07,2.31,2.82,16.68.52,19.42-2.73,3.26-26.2,2.89-29.99.04-4.09-3.07-4.43-19.27,2.23-20.8Z"/><path d="M612.37,281.32c1.8-1.81,25.32-2.97,28.52-1.5,5.06,2.32,5.78,19.78-3.32,21.2-3.09.48-21.25.49-23.42-.46-4.74-2.09-3.48-15.01-1.79-19.24Z"/><path d="M163.36,169.84c-1.17-1.19-.02-2.88-2.61-3.94-10.3-4.23-31.19,6.82-21.21-17.91,2.18-1.66,29.49-1.59,31.62.57,1.87,1.89,1.24,16.15.04,19.09-1.41,3.48-5.19,4.87-7.85,2.19Z"/><path d="M555.9,378.32c1.83,1.82,1.49,15.92,1.28,19.3-.13,2.16-.75,9.34-1.2,10.8-1.24,4.03-16.31,6.06-17.78-2.9-.52-3.2-.6-22.12.15-24.73,1.56-5.44,13.26-4.3,17.55-2.47Z"/><path d="M95.83,77.27c2.28-.68,25.37-.52,27.28.33,4.95,2.18,5.36,17.01-3.53,18.42-2.96.47-22.57.45-24.45-.44-4.72-2.25-3.66-17,.7-18.31Z"/><path d="M607.87,73.31c4.97-.99,22.59-.6,27.02,1.52,5.51,2.64,4.4,14.96-2.27,16.23-4.52.86-24.54.43-28.21-1.74-5.71-3.38-4.16-14.48,3.47-16Z"/><path d="M416.8,387.25c1.71-.57,28.6-.54,30.62.05,6.14,1.77,4.78,15.52-1.81,16.76-2.78.52-25.57.49-27.78-.17-4.99-1.49-5.04-15.29-1.03-16.64Z"/><path d="M482.37,167.84c-1.62-2.3-1.83-24.63-.8-27.82,1.45-4.47,10.19-5.01,13.89-3.78,5.64,1.89.2,24.7,1.47,30.14-3.19,5.33-9.93,4.32-14.57,1.45Z"/><path d="M159.85,376.78c-2.84,2.3-15.34,2.25-17.21-1.7-.81-1.7-.93-17.11-.48-19.48,1.24-6.48,16-5.89,18.87-.91,1.95,3.39,2.09,19.45-1.18,22.09Z"/><path d="M401.64,271.08h17c3.28,2.16,2.73,9.01.58,11.58-1.24,1.48-4.3,1.18-4.95,3.05-1.98,5.64,3.92,14.41-7.63,14.45-4.36.01-6.68-.98-7.44-5.64-.49-3.02-.87-23.44,2.44-23.44Z"/><path d="M160.14,225.08c-3.94,1.03-13.17,2.15-16.42-.08-3.93-2.7-2.96-18.03-1.31-22.15,2.71-6.76,17.73-4.14,17.73.73v21.5Z"/><path d="M496.99,449.22c1.85,6.37-5.21,17.79-11.41,18.8-8.11,1.32-15.37-.67-14.4-10.32,1.31-12.99,16.84-10.26,25.81-8.48Z"/><path d="M420.88,223.32c12.11-2.16,19.44-.35,17.2,13.2-1.4,8.52-16.28,6.53-22,4.12-3.64-5.85-3.19-15.89,4.8-17.32Z"/><path d="M431.83,524.77c-1.29,1.79-8.92,3.35-11.2,3.31-13.61-.22-11.95-19.91-5.99-21.01,3.11-.58,14.16-.45,16.47,1.53,2.94,2.53,2.72,13.39.72,16.16Z"/><path d="M486.39,311.34c2.13-2.02,9.6-1.5,11.72.27,3.28,2.74,2.13,19.71.1,23.04-1.73,2.82-7.55,3.23-10.4,2.27-4.45-1.5-4.5-22.64-1.41-25.57Z"/><path d="M402.89,120.29c3.35-.63,8.59.02,9.81,3.73.79,2.39.9,13.92.41,16.53-1.06,5.63-14.79,4.93-16.53-.41-1.99-6.13-1.56-18.37,6.31-19.85Z"/><path d="M562.87,226.32c10.56-1.93,17.18.4,15.2,12.21-1.22,7.31-11.51,6.46-17.38,5.5-9.16-1.5-7.26-15.98,2.18-17.7Z"/><path d="M190.91,406.34c10.8-1.42,12.56,3.3,11.14,13.15-1.01,6.98-6.73,9.14-13.31,8.57-4.68-.4-5.21-4.56-5.58-8.5-.72-7.51-.68-12.12,7.75-13.23Z"/><path d="M427.9,477.84c-17.87,6.86-16.88-10.47-12.8-22.3,17.02-4.68,15.38,10.79,12.8,22.3Z"/><path d="M449.14,121.08h-16.5c-7.34-12.3.25-23.2,14.55-18.55,5.23,1.7,2.8,13.96,1.95,18.55Z"/><path d="M234.85,342.3c9.77-2.3,16.04,2.01,15.35,12.26-.55,8.12-11.46,9.33-17.34,6.3-4.52-2.33-4.51-17.03,1.99-18.56Z"/><path d="M172.37,210.31c3.51-3.52,16.59-2.95,17.74,3.29.33,1.79.32,11.49-.42,12.53-5.41,2.47-17.54,4.38-18.61-3.51-.33-2.41-.27-10.76,1.28-12.32Z"/><path d="M286.28,340.22c12.97-1.37,15.89.21,14.84,13.35-.6,7.46-1.96,10.77-10.42,9.46-8.97-1.38-5.51-16.3-4.42-22.81Z"/><path d="M466.66,71.56c11.46.32,8.16,19.18,3.9,25.43-8.38,3.56-10.86-3.16-11.46-10.37-.51-6.24-.59-15.29,7.56-15.06Z"/><path d="M187.88,195.82c-2.01,1.89-13.42,1.94-15.49,0-2.88-2.7-3.1-12.35.15-14.83,1.97-1.5,13.03-1.5,15.16.02,3.53,2.51,3.06,12.09.17,14.81Z"/><path d="M214.85,314.3c19.42-4.58,16.93,26.03-2.28,17.86-3.78-4.3-4.26-16.31,2.28-17.86Z"/><path d="M543.84,342.29c5.96-1.75,15.36-.46,15.38,7.28.02,8.98-6.03,9.43-13.6,8.52-9.75-1.17-7.4-14.15-1.77-15.81Z"/><path d="M456.85,131.3c3.88-.87,12.32-.5,13.26,4.3,1.57,8.03-.6,12.99-9.44,12.52-10.85-.58-11.55-15.08-3.83-16.82Z"/><path d="M92.78,289.22l9.65.07c7.24,2.95,6.39,21.84-2.63,18.66-1.44-.51-1.7-2.56-2.73-3.3-1.57-1.13-4.64-1.92-5.44-3.56-.97-2-1.33-11.06,1.15-11.87Z"/><path d="M317.86,530.3c4.63-1.03,12.73-1.12,14.06,4.49,2.16,9.09-3.08,11.34-11.19,10.19-9.59-1.36-9.52-13.21-2.87-14.68Z"/></svg>